<svg xmlns="http://www.w3.org/2000/svg" width="256" height="256" viewBox="0 0 100 100"><rect width="100" height="100" rx="50" fill="#000000"></rect><path d="M50.08 35.11L49.92 35.11L35.88 71.87L32.19 71.87L18.22 35.84L18.06 35.84L17.26 67.45L21.11 67.45L21.11 71.47L8.27 71.47L8.27 67.45L12.85 67.45L13.89 32.15L9.15 32.15L9.15 28.13L20.39 28.13L34.27 64.00L34.43 64.00L48.07 28.13L59.39 28.13L59.39 32.15L54.81 32.15L55.70 67.45L60.43 67.45L60.43 71.47L46.79 71.47L46.79 67.45L50.88 67.45L50.08 35.11ZM78.89 28.13L78.89 32.15L74.07 32.15L74.07 67.45L87.48 67.45L87.48 61.84L91.73 61.84L91.73 71.47L64.44 71.47L64.44 67.45L69.26 67.45L69.26 32.15L64.44 32.15L64.44 28.13L78.89 28.13Z" fill="#fff"></path></svg>